<svg xmlns="http://www.w3.org/2000/svg" width="196" height="39" viewBox="0 0 196 39">
    <g fill="none" fill-rule="nonzero">
        <path fill="#000" d="M150.83 13.934l.564-3.844h8.126l.49-3.34h-11.854l-3.818 25.5h3.744l2.272-15.184h7.829L156.43 28.88h3.758l2.228-14.947H150.83zm-91.089 0l.565-3.844h8.125l.49-3.34H57.069l-3.818 25.5h3.743l2.273-15.184h7.828L65.327 28.88H69.1l2.228-14.947H59.741zm53.655 14.279l.61-2.806c1.217.401 2.747.772 4.263.772 1.634 0 1.975-.267 2.124-1.306.133-.92-.045-1.262-2.303-2.36-3.238-1.573-3.64-2.716-3.283-4.972.416-2.999 1.605-3.934 5.586-3.934 1.426 0 3.297.342 4.515.743l-.52 2.82c-1.158-.342-2.866-.594-3.936-.594-1.485 0-1.931.074-2.08 1.143-.148 1.01.12 1.232 1.798 2.122 3.55 1.856 4.189 2.45 3.847 4.81-.475 3.34-1.59 4.497-5.852 4.497-1.382 0-3.491-.4-4.769-.935zm12.523 0l.624-2.806c1.188.401 2.718.772 4.233.772 1.664 0 1.976-.267 2.154-1.306.104-.92-.045-1.262-2.332-2.36-3.238-1.573-3.61-2.716-3.283-4.972.446-2.999 1.604-3.934 5.585-3.934 1.441 0 3.298.342 4.516.743l-.52 2.82c-1.173-.342-2.882-.594-3.936-.594-1.486 0-1.917.074-2.08 1.143-.149 1.01.149 1.232 1.827 2.122 3.52 1.856 4.16 2.45 3.833 4.81-.49 3.34-1.575 4.497-5.838 4.497-1.411 0-3.491-.4-4.783-.935zm47.37 0l.625-2.806c1.203.401 2.718.772 4.248.772 1.634 0 1.99-.267 2.14-1.306.118-.92-.06-1.262-2.303-2.36-3.253-1.573-3.64-2.716-3.298-4.972.416-2.999 1.604-3.934 5.57-3.934 1.441 0 3.298.342 4.531.743l-.52 2.82c-1.158-.342-2.896-.594-3.936-.594-1.486 0-1.931.074-2.08 1.143-.148 1.01.119 1.232 1.812 2.122 3.536 1.856 4.16 2.45 3.833 4.81-.475 3.34-1.59 4.497-5.838 4.497-1.396 0-3.49-.4-4.783-.935zm-.177-11.221c-1.753.95-2.823 1.662-4.397 2.671l-1.367 9.218h-3.758l2.198-14.71 3.224-.49-.075 2.183c1.01-.772 2.54-1.693 3.788-2.212l.387 3.34zm-64.529.653c-.015-.668-.609-1.173-1.604-1.173-1.708 0-2.451 1.04-2.644 2.45l-.253 1.543c.55-.149.699-.208 2.199-.668 1.664-.52 2.332-1.173 2.302-2.152zm-5.095 6.857c-.119.831-.178 1.573 1.189 1.573 1.604 0 3.817-.742 5.748-1.721l.892 2.82c-1.783 1.113-4.56 1.974-7.056 1.974-4.011 0-4.888-2.197-4.442-5.314l.698-4.557c.55-3.517 2.124-5.67 6.685-5.67 2.896 0 4.872 1.455 4.946 3.89.104 2.67-1.634 4.2-5.719 5.461-1.797.55-2.124.653-2.837.817l-.104.727zm-9.685-6.293c.03-.149.149-1.04-.817-1.04-.98 0-3.045.92-4.397 1.752l-1.485 9.96H83.33l2.213-14.724 3.194-.475v1.81c1.93-1.068 4.278-1.885 6.03-1.885 2.08 0 2.882 1.366 2.927 2.969.03.594-.03.994-.104 1.484l-1.604 10.82h-3.759l1.575-10.671zm92.603 7.347l2.303-15.437 3.847-.579-.653 4.394h3.847l-.475 3.132h-3.833l-1.262 8.327c-.06.534.148.757.683.757.772 0 1.738-.312 2.6-.668l.89 2.508a10.051 10.051 0 0 1-4.723 1.188c-2.347 0-3.52-1.485-3.224-3.622zm-113.355 0l2.303-15.437 3.862-.579-.669 4.394h3.877l-.475 3.132h-3.862l-1.248 8.327c-.074.534.134.757.698.757.743 0 1.738-.312 2.57-.668l.891 2.508c-1.233.683-2.911 1.188-4.694 1.188-2.362 0-3.55-1.485-3.253-3.622z"/>
        <path fill="#DD1A32" d="M22.01 28.918L26.3 0H8.77L7.29 10.038h6.983l-2.782 18.88H4.51L3 39h24.513l1.48-10.082H22.01zM28.8 0l-1.51 10.038h13.951L42.75 0H28.8zm-3.536 23.72h7.382l1.405-9.575H26.7l-1.435 9.575zM.931 3H.388L.802.47H0L.065 0H2.25l-.09.47h-.815zM5.265 1.05l-.956 1.546h-.662L3.324 1.05 2.838 3H2.25l.735-3h.662l.441 2.018L5.338 0H6l-.412 3h-.617z"/>
    </g>
</svg>
